#N canvas 961 81 958 974 10;
#X msg 863 118 \; pd dsp \$1;
#X obj 751 207 dac~ 1 2, f 10;
#X obj 71 776 bng 15 250 50 0 empty empty empty 17 7 0 10 -262144 -1
-1;
#X obj 30 716 vsl 30 100 0 1 0 0 empty empty empty 0 -9 0 10 -262144
-1 -1 4950 1;
#X msg 30 827 vol \$1;
#X obj 29 847 s sample01-vol;
#X obj 71 799 s sample01-trigger;
#N canvas 1 81 1905 974 samples 0;
#X obj 86 173 r sample01-trigger;
#X obj 86 119 r sample01-vol;
#X msg 226 157 read /home/lifthoofd/git/positively_charged/pd/samples/audiojungle-16850856-water-drops/Water_Drops-1.wav
;
#X msg 217 306 read /home/lifthoofd/git/positively_charged/pd/samples/audiojungle-16850856-water-drops/Water_Drops-2.wav
;
#X msg 215 466 read /home/lifthoofd/git/positively_charged/pd/samples/audiojungle-16850856-water-drops/Water_Drops-3.wav
;
#X msg 214 617 read /home/lifthoofd/git/positively_charged/pd/samples/audiojungle-16850856-water-drops/Water_Drops-4.wav
;
#X msg 214 787 read /home/lifthoofd/git/positively_charged/pd/samples/audiojungle-16850856-water-drops/Water_Drops-5.wav
;
#X obj 218 31 loadbang;
#X obj 218 53 s \$0-init;
#X obj 225 87 r \$0-init;
#X obj 75 267 r sample02-vol;
#X obj 60 429 r sample03-vol;
#X obj 61 578 r sample04-vol;
#X obj 59 737 r sample05-vol;
#X msg 1377 162 read /home/lifthoofd/git/positively_charged/pd/samples/Water.wav
;
#X obj 1224 120 r sample06-vol;
#X obj 1237 178 r sample06-trigger;
#X obj 1218 272 r sample07-vol;
#X obj 1232 336 r sample07-trigger;
#X msg 1374 465 read /home/lifthoofd/git/positively_charged/pd/samples/audiojungle-15353331-cave-water-drop/Cave_Water_Drop.wav
;
#X obj 1221 428 r sample08-vol;
#X obj 1235 479 r sample08-trigger;
#X msg 1384 603 read /home/lifthoofd/git/positively_charged/pd/samples/Cavern_Water_Drop-Nonzerobot/Cavern_Water_Drop_Nonzerobot.wav
;
#X obj 1227 562 r sample09-vol;
#X obj 1244 620 r sample09-trigger;
#X msg 1377 758 read /home/lifthoofd/git/positively_charged/pd/samples/audiojungle-16850856-water-drops/Water_Drops_Reverb_3.wav
;
#X obj 77 322 r sample02-trigger;
#X obj 76 480 r sample03-trigger;
#X obj 74 633 r sample04-trigger;
#X obj 74 803 r sample05-trigger;
#X obj 1237 772 r sample10-trigger;
#X obj 1219 721 r sample10-vol;
#X obj 920 641 outlet~;
#X obj 847 636 outlet~;
#X obj 898 101 bng 15 250 50 0 empty empty empty 17 7 0 10 -262144
-1 -1;
#X obj 898 121 openpanel;
#X obj 898 143 print;
#X msg 1372 320 read /home/lifthoofd/git/positively_charged/pd/samples/audiojungle-16850856-water-drops/Water_Drops_Reverb_4.wav
;
#X obj 226 207 splay~, f 8;
#X obj 225 109 t b b;
#X obj 1375 394 r \$0-init;
#X obj 1375 416 t b b;
#X obj 213 241 r \$0-init;
#X obj 213 263 t b b;
#X obj 212 394 r \$0-init;
#X obj 212 416 t b b;
#X obj 212 716 r \$0-init;
#X obj 212 738 t b b;
#X obj 215 550 r \$0-init;
#X obj 215 572 t b b;
#X obj 1379 687 r \$0-init;
#X obj 1379 709 t b b;
#X obj 1375 81 r \$0-init;
#X obj 1375 103 t b b;
#X obj 1370 247 r \$0-init;
#X obj 1370 269 t b b;
#X obj 1381 532 r \$0-init;
#X obj 1381 554 t b b;
#X msg 257 133 samplerate 11025;
#X msg 245 287 samplerate 22050;
#X msg 244 440 samplerate 44100;
#X msg 247 596 samplerate 44100;
#X msg 244 762 samplerate 5512;
#X msg 1402 293 samplerate 192000;
#X msg 1407 127 samplerate 192000;
#X msg 1407 440 samplerate 384000;
#X msg 1411 733 samplerate 384000;
#X msg 1413 578 samplerate 384000;
#X obj 1375 513 splay~, f 8;
#X obj 217 356 splay~, f 8;
#X obj 216 514 splay~, f 8;
#X obj 214 667 splay~, f 8;
#X obj 214 837 splay~, f 8;
#X obj 1377 215 splay~, f 8;
#X obj 1372 370 splay~, f 8;
#X obj 1384 654 splay~, f 8;
#X obj 1377 808 splay~, f 8;
#X obj 38 144 r sample01-speed;
#X obj 60 293 r sample02-speed;
#X obj 59 453 r sample03-speed;
#X obj 57 606 r sample04-speed;
#X obj 57 776 r sample05-speed;
#X obj 1220 151 r sample06-speed;
#X obj 1215 309 r sample07-speed;
#X obj 1218 452 r sample08-speed;
#X obj 1227 593 r sample09-speed;
#X obj 1220 747 r sample10-speed;
#X connect 0 0 38 0;
#X connect 1 0 38 0;
#X connect 2 0 38 0;
#X connect 3 0 69 0;
#X connect 4 0 70 0;
#X connect 5 0 71 0;
#X connect 6 0 72 0;
#X connect 7 0 8 0;
#X connect 9 0 39 0;
#X connect 10 0 69 0;
#X connect 11 0 70 0;
#X connect 12 0 71 0;
#X connect 13 0 72 0;
#X connect 14 0 73 0;
#X connect 15 0 73 0;
#X connect 16 0 73 0;
#X connect 17 0 74 0;
#X connect 18 0 74 0;
#X connect 19 0 68 0;
#X connect 20 0 68 0;
#X connect 21 0 68 0;
#X connect 22 0 75 0;
#X connect 23 0 75 0;
#X connect 24 0 75 0;
#X connect 25 0 76 0;
#X connect 26 0 69 0;
#X connect 27 0 70 0;
#X connect 28 0 71 0;
#X connect 29 0 72 0;
#X connect 30 0 76 0;
#X connect 31 0 76 0;
#X connect 34 0 35 0;
#X connect 35 0 36 0;
#X connect 37 0 74 0;
#X connect 38 0 33 0;
#X connect 38 1 32 0;
#X connect 39 0 2 0;
#X connect 39 1 58 0;
#X connect 40 0 41 0;
#X connect 41 0 19 0;
#X connect 41 1 65 0;
#X connect 42 0 43 0;
#X connect 43 0 3 0;
#X connect 43 1 59 0;
#X connect 44 0 45 0;
#X connect 45 0 4 0;
#X connect 45 1 60 0;
#X connect 46 0 47 0;
#X connect 47 0 6 0;
#X connect 47 1 62 0;
#X connect 48 0 49 0;
#X connect 49 0 5 0;
#X connect 49 1 61 0;
#X connect 50 0 51 0;
#X connect 51 0 25 0;
#X connect 51 1 66 0;
#X connect 52 0 53 0;
#X connect 53 0 14 0;
#X connect 53 1 64 0;
#X connect 54 0 55 0;
#X connect 55 0 37 0;
#X connect 55 1 63 0;
#X connect 56 0 57 0;
#X connect 57 0 22 0;
#X connect 57 1 67 0;
#X connect 58 0 38 0;
#X connect 59 0 69 0;
#X connect 60 0 70 0;
#X connect 61 0 71 0;
#X connect 62 0 72 0;
#X connect 63 0 74 0;
#X connect 64 0 73 0;
#X connect 65 0 68 0;
#X connect 66 0 76 0;
#X connect 67 0 75 0;
#X connect 68 0 33 0;
#X connect 68 1 32 0;
#X connect 69 0 33 0;
#X connect 69 1 32 0;
#X connect 70 0 33 0;
#X connect 70 1 32 0;
#X connect 71 0 33 0;
#X connect 71 1 32 0;
#X connect 72 0 33 0;
#X connect 72 1 32 0;
#X connect 73 0 33 0;
#X connect 73 1 32 0;
#X connect 74 0 33 0;
#X connect 74 1 32 0;
#X connect 75 0 33 0;
#X connect 75 1 32 0;
#X connect 76 0 33 0;
#X connect 76 1 32 0;
#X connect 77 0 38 0;
#X connect 78 0 69 0;
#X connect 79 0 70 0;
#X connect 80 0 71 0;
#X connect 81 0 72 0;
#X connect 82 0 73 0;
#X connect 83 0 74 0;
#X connect 84 0 68 0;
#X connect 85 0 75 0;
#X connect 86 0 76 0;
#X restore 751 159 pd samples;
#X obj 458 775 bng 15 250 50 0 empty empty empty 17 7 0 10 -262144
-1 -1;
#X obj 417 715 vsl 30 100 0 1 0 0 empty empty empty 0 -9 0 10 -262144
-1 -1 4950 1;
#X msg 417 826 vol \$1;
#X obj 836 784 bng 15 250 50 0 empty empty empty 17 7 0 10 -262144
-1 -1;
#X obj 795 724 vsl 30 100 0 1 0 0 empty empty empty 0 -9 0 10 -262144
-1 -1 9900 1;
#X msg 795 835 vol \$1;
#X obj 1189 807 bng 15 250 50 0 empty empty empty 17 7 0 10 -262144
-1 -1;
#X obj 1148 747 vsl 30 100 0 1 0 0 empty empty empty 0 -9 0 10 -262144
-1 -1 9900 1;
#X msg 1148 858 vol \$1;
#X obj 1570 796 bng 15 250 50 0 empty empty empty 17 7 0 10 -262144
-1 -1;
#X obj 1529 736 vsl 30 100 0 1 0 0 empty empty empty 0 -9 0 10 -262144
-1 -1 4950 1;
#X msg 1529 847 vol \$1;
#X obj 458 798 s sample02-trigger;
#X obj 416 846 s sample02-vol;
#X obj 794 855 s sample03-vol;
#X obj 836 807 s sample03-trigger;
#X obj 1147 878 s sample04-vol;
#X obj 1189 830 s sample04-trigger;
#X obj 1528 867 s sample05-vol;
#X obj 1570 820 s sample05-trigger;
#X obj 110 1241 bng 15 250 50 0 empty empty empty 17 7 0 10 -262144
-1 -1;
#X obj 69 1181 vsl 30 100 0 1 0 0 empty empty empty 0 -9 0 10 -262144
-1 -1 9900 1;
#X msg 69 1292 vol \$1;
#X obj 512 1254 bng 15 250 50 0 empty empty empty 17 7 0 10 -262144
-1 -1;
#X obj 471 1194 vsl 30 100 0 1 0 0 empty empty empty 0 -9 0 10 -262144
-1 -1 9900 1;
#X msg 471 1305 vol \$1;
#X obj 110 1265 s sample06-trigger;
#X obj 68 1312 s sample06-vol;
#X obj 512 1278 s sample07-trigger;
#X obj 470 1325 s sample07-vol;
#X obj 857 1252 bng 15 250 50 0 empty empty empty 17 7 0 10 -262144
-1 -1;
#X obj 816 1192 vsl 30 100 0 1 0 0 empty empty empty 0 -9 0 10 -262144
-1 -1 2475 1;
#X msg 816 1303 vol \$1;
#X obj 1215 1275 bng 15 250 50 0 empty empty empty 17 7 0 10 -262144
-1 -1;
#X obj 1174 1215 vsl 30 100 0 1 0 0 empty empty empty 0 -9 0 10 -262144
-1 -1 4950 1;
#X msg 1174 1326 vol \$1;
#X obj 1667 1267 bng 15 250 50 0 empty empty empty 17 7 0 10 -262144
-1 -1;
#X obj 1626 1207 vsl 30 100 0 1 0 0 empty empty empty 0 -9 0 10 -262144
-1 -1 9900 1;
#X msg 1626 1318 vol \$1;
#X obj 857 1275 s sample08-trigger;
#X obj 815 1323 s sample08-vol;
#X obj 1215 1299 s sample09-trigger;
#X obj 1173 1347 s sample09-vol;
#X obj 1667 1291 s sample10-trigger;
#X obj 1625 1338 s sample10-vol;
#X obj 825 13 loadbang;
#X obj 767 113 s vol-init;
#X obj 23 612 r vol-init;
#X obj 416 624 r vol-init;
#X obj 798 628 r vol-init;
#X obj 1148 651 r vol-init;
#X obj 1531 642 r vol-init;
#X obj 68 1095 r vol-init;
#X obj 468 1101 r vol-init;
#X obj 816 1118 r vol-init;
#X obj 1169 1140 r vol-init;
#X obj 1619 1131 r vol-init;
#X obj 885 75 tgl 15 0 empty empty empty 17 7 0 10 -262144 -1 -1 1
1;
#X obj 825 38 t b b;
#X msg 805 671 1, f 2;
#X msg 434 660 0.5;
#X msg 25 658 0.5;
#X msg 1166 692 1;
#X msg 1540 686 0.5;
#X msg 68 1144 1;
#X msg 498 1149 1;
#X msg 1183 1169 0.5;
#X msg 816 1150 0.25;
#X msg 1631 1175 1;
#X obj 404 304 unpackOSC;
#X obj 405 268 iemnet/udpreceive 7001;
#X obj 119 642 tgl 15 0 empty empty empty 17 7 0 10 -262144 -1 -1 0
1;
#X obj 121 747 * 1000;
#X msg 18 486 1;
#X obj 17 429 sel 0;
#X msg 127 480 0;
#X obj 130 447 sel 0;
#X obj 275 600 s sample01-speed;
#X obj 278 509 random 75;
#X obj 277 534 + 75;
#X obj 278 558 / 100;
#X msg 276 580 speed \$1;
#X obj 190 464 sel 0;
#X obj 18 454 t b b;
#X obj 67 532 s sample01-speed;
#X msg 68 512 speed \$1;
#X msg 70 488 1;
#X obj 120 720 + 5;
#X obj 117 689 random 10;
#X obj 190 486 t b b b, f 13;
#X msg 234 510 0;
#X obj 117 664 metro 15000;
#X msg 190 511 1;
#X obj 121 775 nbx 5 14 -1e+37 1e+37 0 0 empty empty empty 0 -8 0 10
-262144 -1 -1 7000 256;
#X obj 500 639 tgl 15 0 empty empty empty 17 7 0 10 -262144 -1 -1 0
1;
#X obj 502 744 * 1000;
#X msg 399 483 1;
#X msg 508 477 0;
#X obj 659 506 random 75;
#X obj 658 531 + 75;
#X obj 659 555 / 100;
#X msg 657 577 speed \$1;
#X obj 399 451 t b b;
#X msg 449 509 speed \$1;
#X msg 451 485 1;
#X obj 501 717 + 5;
#X obj 498 686 random 10;
#X obj 571 483 t b b b, f 13;
#X msg 615 507 0;
#X obj 498 661 metro 15000;
#X msg 571 508 1;
#X obj 502 772 nbx 5 14 -1e+37 1e+37 0 0 empty empty empty 0 -8 0 10
-262144 -1 -1 7000 256;
#X obj 656 597 s sample02-speed;
#X obj 448 529 s sample02-speed;
#X obj 864 651 tgl 15 0 empty empty empty 17 7 0 10 -262144 -1 -1 0
1;
#X obj 866 756 * 1000;
#X msg 763 495 1;
#X msg 872 489 0;
#X obj 1023 518 random 75;
#X obj 1022 543 + 75;
#X obj 1023 567 / 100;
#X msg 1021 589 speed \$1;
#X obj 763 463 t b b;
#X msg 813 521 speed \$1;
#X msg 815 497 1;
#X obj 865 729 + 5;
#X obj 862 698 random 10;
#X obj 935 495 t b b b, f 13;
#X msg 979 519 0;
#X obj 862 673 metro 15000;
#X msg 935 520 1;
#X obj 866 784 nbx 5 14 -1e+37 1e+37 0 0 empty empty empty 0 -8 0 10
-262144 -1 -1 0 256;
#X obj 398 426 sel 1;
#X obj 511 444 sel 1;
#X obj 571 461 sel 1;
#X obj 1020 609 s sample03-speed;
#X obj 812 541 s sample03-speed;
#X obj 762 438 sel 2;
#X obj 877 456 sel 2;
#X obj 936 472 sel 2;
#X obj 1221 673 tgl 15 0 empty empty empty 17 7 0 10 -262144 -1 -1
0 1;
#X obj 1223 778 * 1000;
#X msg 1120 517 1;
#X msg 1229 511 0;
#X obj 1380 540 random 75;
#X obj 1379 565 + 75;
#X obj 1380 589 / 100;
#X msg 1378 611 speed \$1;
#X obj 1120 485 t b b;
#X msg 1170 543 speed \$1;
#X msg 1172 519 1;
#X obj 1222 751 + 5;
#X obj 1219 720 random 10;
#X obj 1292 517 t b b b, f 13;
#X msg 1336 541 0;
#X obj 1219 695 metro 15000;
#X msg 1292 542 1;
#X obj 1223 806 nbx 5 14 -1e+37 1e+37 0 0 empty empty empty 0 -8 0
10 -262144 -1 -1 0 256;
#X obj 1119 461 sel 3;
#X obj 1232 476 sel 3;
#X obj 1292 495 sel 3;
#X obj 1169 563 s sample04-speed;
#X obj 1377 631 s sample04-speed;
#X obj 1603 662 tgl 15 0 empty empty empty 17 7 0 10 -262144 -1 -1
0 1;
#X obj 1605 767 * 1000;
#X msg 1502 506 1;
#X msg 1611 500 0;
#X obj 1762 529 random 75;
#X obj 1761 554 + 75;
#X obj 1762 578 / 100;
#X msg 1760 600 speed \$1;
#X obj 1502 474 t b b;
#X msg 1552 532 speed \$1;
#X msg 1554 508 1;
#X obj 1604 740 + 5;
#X obj 1601 709 random 10;
#X obj 1674 506 t b b b, f 13;
#X msg 1718 530 0;
#X obj 1601 684 metro 15000;
#X msg 1674 531 1;
#X obj 1605 795 nbx 5 14 -1e+37 1e+37 0 0 empty empty empty 0 -8 0
10 -262144 -1 -1 0 256;
#X obj 1551 552 s sample05-speed;
#X obj 1759 620 s sample05-speed;
#X obj 1501 449 sel 4;
#X obj 1614 467 sel 4;
#X obj 1674 485 sel 4;
#X obj 145 1109 tgl 15 0 empty empty empty 17 7 0 10 -262144 -1 -1
0 1;
#X obj 147 1214 * 1000;
#X msg 44 953 1;
#X msg 153 947 0;
#X obj 304 976 random 75;
#X obj 303 1001 + 75;
#X obj 304 1025 / 100;
#X msg 302 1047 speed \$1;
#X obj 44 921 t b b;
#X msg 94 979 speed \$1;
#X msg 96 955 1;
#X obj 146 1187 + 5;
#X obj 143 1156 random 10;
#X obj 216 953 t b b b, f 13;
#X msg 260 977 0;
#X obj 143 1131 metro 15000;
#X msg 216 978 1;
#X obj 147 1242 nbx 5 14 -1e+37 1e+37 0 0 empty empty empty 0 -8 0
10 -262144 -1 -1 0 256;
#X obj 301 1067 s sample06-speed;
#X obj 93 999 s sample06-speed;
#X obj 43 896 sel 5;
#X obj 156 914 sel 5;
#X obj 216 931 sel 5;
#X obj 550 1113 tgl 15 0 empty empty empty 17 7 0 10 -262144 -1 -1
0 1;
#X obj 552 1218 * 1000;
#X msg 449 957 1;
#X msg 558 951 0;
#X obj 709 980 random 75;
#X obj 708 1005 + 75;
#X obj 709 1029 / 100;
#X msg 707 1051 speed \$1;
#X obj 449 925 t b b;
#X msg 499 983 speed \$1;
#X msg 501 959 1;
#X obj 551 1191 + 5;
#X obj 548 1160 random 10;
#X obj 621 957 t b b b, f 13;
#X msg 665 981 0;
#X obj 548 1135 metro 15000;
#X msg 621 982 1;
#X obj 552 1246 nbx 5 14 -1e+37 1e+37 0 0 empty empty empty 0 -8 0
10 -262144 -1 -1 0 256;
#X obj 498 1003 s sample07-speed;
#X obj 706 1071 s sample07-speed;
#X obj 448 900 sel 6;
#X obj 561 918 sel 6;
#X obj 621 935 sel 6;
#X obj 904 1112 tgl 15 0 empty empty empty 17 7 0 10 -262144 -1 -1
0 1;
#X obj 906 1217 * 1000;
#X msg 803 956 1;
#X msg 912 950 0;
#X obj 1063 979 random 75;
#X obj 1062 1004 + 75;
#X obj 1063 1028 / 100;
#X msg 1061 1050 speed \$1;
#X obj 803 924 t b b;
#X msg 853 982 speed \$1;
#X msg 855 958 1;
#X obj 905 1190 + 5;
#X obj 902 1159 random 10;
#X obj 975 956 t b b b, f 13;
#X msg 1019 980 0;
#X obj 902 1134 metro 15000;
#X msg 975 981 1;
#X obj 906 1245 nbx 5 14 -1e+37 1e+37 0 0 empty empty empty 0 -8 0
10 -262144 -1 -1 0 256;
#X obj 852 1001 s sample08-speed;
#X obj 1060 1070 s sample08-speed;
#X obj 802 899 sel 7;
#X obj 915 917 sel 7;
#X obj 975 934 sel 7;
#X obj 1260 1133 tgl 15 0 empty empty empty 17 7 0 10 -262144 -1 -1
0 1;
#X obj 1262 1238 * 1000;
#X msg 1159 977 1;
#X msg 1268 971 0;
#X obj 1419 1000 random 75;
#X obj 1418 1025 + 75;
#X obj 1419 1049 / 100;
#X msg 1417 1071 speed \$1;
#X obj 1159 945 t b b;
#X msg 1209 1003 speed \$1;
#X msg 1211 979 1;
#X obj 1261 1211 + 5;
#X obj 1258 1180 random 10;
#X obj 1331 977 t b b b, f 13;
#X msg 1375 1001 0;
#X obj 1258 1155 metro 15000;
#X msg 1331 1002 1;
#X obj 1262 1266 nbx 5 14 -1e+37 1e+37 0 0 empty empty empty 0 -8 0
10 -262144 -1 -1 0 256;
#X obj 1416 1091 s sample09-speed;
#X obj 1208 1023 s sample09-speed;
#X obj 1158 920 sel 8;
#X obj 1271 938 sel 8;
#X obj 1331 955 sel 8;
#X obj 1713 1123 tgl 15 0 empty empty empty 17 7 0 10 -262144 -1 -1
0 1;
#X obj 1715 1228 * 1000;
#X msg 1612 967 1;
#X msg 1721 961 0;
#X obj 1872 990 random 75;
#X obj 1871 1015 + 75;
#X obj 1872 1039 / 100;
#X msg 1870 1061 speed \$1;
#X obj 1612 935 t b b;
#X msg 1662 993 speed \$1;
#X msg 1664 969 1;
#X obj 1714 1201 + 5;
#X obj 1711 1170 random 10;
#X obj 1784 967 t b b b, f 13;
#X msg 1828 991 0;
#X obj 1711 1145 metro 15000;
#X msg 1784 992 1;
#X obj 1715 1256 nbx 5 14 -1e+37 1e+37 0 0 empty empty empty 0 -8 0
10 -262144 -1 -1 0 256;
#X obj 1869 1081 s sample10-speed;
#X obj 1661 1013 s sample10-speed;
#X obj 1611 910 sel 9;
#X obj 1724 928 sel 9;
#X obj 1784 945 sel 9;
#X obj 818 182 *~ 0.85;
#X obj 751 184 *~ 0.85;
#X obj 406 360 routeOSC /start /stop /circle_on, f 75;
#X connect 2 0 6 0;
#X connect 3 0 4 0;
#X connect 4 0 5 0;
#X connect 7 0 310 0;
#X connect 7 1 309 0;
#X connect 8 0 20 0;
#X connect 9 0 10 0;
#X connect 10 0 21 0;
#X connect 11 0 23 0;
#X connect 12 0 13 0;
#X connect 13 0 22 0;
#X connect 14 0 25 0;
#X connect 15 0 16 0;
#X connect 16 0 24 0;
#X connect 17 0 27 0;
#X connect 18 0 19 0;
#X connect 19 0 26 0;
#X connect 28 0 34 0;
#X connect 29 0 30 0;
#X connect 30 0 35 0;
#X connect 31 0 36 0;
#X connect 32 0 33 0;
#X connect 33 0 37 0;
#X connect 38 0 47 0;
#X connect 39 0 40 0;
#X connect 40 0 48 0;
#X connect 41 0 49 0;
#X connect 42 0 43 0;
#X connect 43 0 50 0;
#X connect 44 0 51 0;
#X connect 45 0 46 0;
#X connect 46 0 52 0;
#X connect 53 0 66 0;
#X connect 55 0 69 0;
#X connect 56 0 68 0;
#X connect 57 0 67 0;
#X connect 58 0 70 0;
#X connect 59 0 71 0;
#X connect 60 0 72 0;
#X connect 61 0 73 0;
#X connect 62 0 75 0;
#X connect 63 0 74 0;
#X connect 64 0 76 0;
#X connect 65 0 0 0;
#X connect 66 0 54 0;
#X connect 66 1 65 0;
#X connect 67 0 12 0;
#X connect 68 0 9 0;
#X connect 69 0 3 0;
#X connect 70 0 15 0;
#X connect 71 0 18 0;
#X connect 72 0 29 0;
#X connect 73 0 32 0;
#X connect 74 0 42 0;
#X connect 75 0 39 0;
#X connect 76 0 45 0;
#X connect 77 0 311 0;
#X connect 78 0 77 0;
#X connect 79 0 99 0;
#X connect 80 0 99 1;
#X connect 80 0 101 0;
#X connect 81 0 79 0;
#X connect 82 0 91 0;
#X connect 83 0 79 0;
#X connect 84 0 83 0;
#X connect 86 0 87 0;
#X connect 87 0 88 0;
#X connect 88 0 89 0;
#X connect 89 0 85 0;
#X connect 90 0 97 0;
#X connect 91 0 81 0;
#X connect 91 1 94 0;
#X connect 93 0 92 0;
#X connect 94 0 93 0;
#X connect 95 0 80 0;
#X connect 96 0 95 0;
#X connect 97 0 100 0;
#X connect 97 1 98 0;
#X connect 97 2 86 0;
#X connect 98 0 79 0;
#X connect 99 0 2 0;
#X connect 99 0 96 0;
#X connect 100 0 79 0;
#X connect 102 0 117 0;
#X connect 103 0 117 1;
#X connect 103 0 119 0;
#X connect 104 0 102 0;
#X connect 105 0 102 0;
#X connect 106 0 107 0;
#X connect 107 0 108 0;
#X connect 108 0 109 0;
#X connect 109 0 120 0;
#X connect 110 0 104 0;
#X connect 110 1 112 0;
#X connect 111 0 121 0;
#X connect 112 0 111 0;
#X connect 113 0 103 0;
#X connect 114 0 113 0;
#X connect 115 0 118 0;
#X connect 115 1 116 0;
#X connect 115 2 106 0;
#X connect 116 0 102 0;
#X connect 117 0 114 0;
#X connect 117 0 8 0;
#X connect 118 0 102 0;
#X connect 122 0 137 0;
#X connect 123 0 137 1;
#X connect 123 0 139 0;
#X connect 124 0 122 0;
#X connect 125 0 122 0;
#X connect 126 0 127 0;
#X connect 127 0 128 0;
#X connect 128 0 129 0;
#X connect 129 0 143 0;
#X connect 130 0 124 0;
#X connect 130 1 132 0;
#X connect 131 0 144 0;
#X connect 132 0 131 0;
#X connect 133 0 123 0;
#X connect 134 0 133 0;
#X connect 135 0 138 0;
#X connect 135 1 136 0;
#X connect 135 2 126 0;
#X connect 136 0 122 0;
#X connect 137 0 134 0;
#X connect 137 0 11 0;
#X connect 138 0 122 0;
#X connect 140 0 110 0;
#X connect 141 0 105 0;
#X connect 142 0 115 0;
#X connect 145 0 130 0;
#X connect 146 0 125 0;
#X connect 147 0 135 0;
#X connect 148 0 163 0;
#X connect 149 0 163 1;
#X connect 149 0 165 0;
#X connect 150 0 148 0;
#X connect 151 0 148 0;
#X connect 152 0 153 0;
#X connect 153 0 154 0;
#X connect 154 0 155 0;
#X connect 155 0 170 0;
#X connect 156 0 150 0;
#X connect 156 1 158 0;
#X connect 157 0 169 0;
#X connect 158 0 157 0;
#X connect 159 0 149 0;
#X connect 160 0 159 0;
#X connect 161 0 164 0;
#X connect 161 1 162 0;
#X connect 161 2 152 0;
#X connect 162 0 148 0;
#X connect 163 0 160 0;
#X connect 163 0 14 0;
#X connect 164 0 148 0;
#X connect 166 0 156 0;
#X connect 167 0 151 0;
#X connect 168 0 161 0;
#X connect 171 0 186 0;
#X connect 172 0 186 1;
#X connect 172 0 188 0;
#X connect 173 0 171 0;
#X connect 174 0 171 0;
#X connect 175 0 176 0;
#X connect 176 0 177 0;
#X connect 177 0 178 0;
#X connect 178 0 190 0;
#X connect 179 0 173 0;
#X connect 179 1 181 0;
#X connect 180 0 189 0;
#X connect 181 0 180 0;
#X connect 182 0 172 0;
#X connect 183 0 182 0;
#X connect 184 0 187 0;
#X connect 184 1 185 0;
#X connect 184 2 175 0;
#X connect 185 0 171 0;
#X connect 186 0 183 0;
#X connect 186 0 27 0;
#X connect 187 0 171 0;
#X connect 191 0 179 0;
#X connect 192 0 174 0;
#X connect 193 0 184 0;
#X connect 194 0 209 0;
#X connect 195 0 209 1;
#X connect 195 0 211 0;
#X connect 196 0 194 0;
#X connect 197 0 194 0;
#X connect 198 0 199 0;
#X connect 199 0 200 0;
#X connect 200 0 201 0;
#X connect 201 0 212 0;
#X connect 202 0 196 0;
#X connect 202 1 204 0;
#X connect 203 0 213 0;
#X connect 204 0 203 0;
#X connect 205 0 195 0;
#X connect 206 0 205 0;
#X connect 207 0 210 0;
#X connect 207 1 208 0;
#X connect 207 2 198 0;
#X connect 208 0 194 0;
#X connect 209 0 206 0;
#X connect 209 0 28 0;
#X connect 210 0 194 0;
#X connect 214 0 202 0;
#X connect 215 0 197 0;
#X connect 216 0 207 0;
#X connect 217 0 232 0;
#X connect 218 0 232 1;
#X connect 218 0 234 0;
#X connect 219 0 217 0;
#X connect 220 0 217 0;
#X connect 221 0 222 0;
#X connect 222 0 223 0;
#X connect 223 0 224 0;
#X connect 224 0 236 0;
#X connect 225 0 219 0;
#X connect 225 1 227 0;
#X connect 226 0 235 0;
#X connect 227 0 226 0;
#X connect 228 0 218 0;
#X connect 229 0 228 0;
#X connect 230 0 233 0;
#X connect 230 1 231 0;
#X connect 230 2 221 0;
#X connect 231 0 217 0;
#X connect 232 0 229 0;
#X connect 232 0 31 0;
#X connect 233 0 217 0;
#X connect 237 0 225 0;
#X connect 238 0 220 0;
#X connect 239 0 230 0;
#X connect 240 0 255 0;
#X connect 241 0 255 1;
#X connect 241 0 257 0;
#X connect 242 0 240 0;
#X connect 243 0 240 0;
#X connect 244 0 245 0;
#X connect 245 0 246 0;
#X connect 246 0 247 0;
#X connect 247 0 259 0;
#X connect 248 0 242 0;
#X connect 248 1 250 0;
#X connect 249 0 258 0;
#X connect 250 0 249 0;
#X connect 251 0 241 0;
#X connect 252 0 251 0;
#X connect 253 0 256 0;
#X connect 253 1 254 0;
#X connect 253 2 244 0;
#X connect 254 0 240 0;
#X connect 255 0 252 0;
#X connect 255 0 38 0;
#X connect 256 0 240 0;
#X connect 260 0 248 0;
#X connect 261 0 243 0;
#X connect 262 0 253 0;
#X connect 263 0 278 0;
#X connect 264 0 278 1;
#X connect 264 0 280 0;
#X connect 265 0 263 0;
#X connect 266 0 263 0;
#X connect 267 0 268 0;
#X connect 268 0 269 0;
#X connect 269 0 270 0;
#X connect 270 0 281 0;
#X connect 271 0 265 0;
#X connect 271 1 273 0;
#X connect 272 0 282 0;
#X connect 273 0 272 0;
#X connect 274 0 264 0;
#X connect 275 0 274 0;
#X connect 276 0 279 0;
#X connect 276 1 277 0;
#X connect 276 2 267 0;
#X connect 277 0 263 0;
#X connect 278 0 275 0;
#X connect 278 0 41 0;
#X connect 279 0 263 0;
#X connect 283 0 271 0;
#X connect 284 0 266 0;
#X connect 285 0 276 0;
#X connect 286 0 301 0;
#X connect 287 0 301 1;
#X connect 287 0 303 0;
#X connect 288 0 286 0;
#X connect 289 0 286 0;
#X connect 290 0 291 0;
#X connect 291 0 292 0;
#X connect 292 0 293 0;
#X connect 293 0 304 0;
#X connect 294 0 288 0;
#X connect 294 1 296 0;
#X connect 295 0 305 0;
#X connect 296 0 295 0;
#X connect 297 0 287 0;
#X connect 298 0 297 0;
#X connect 299 0 302 0;
#X connect 299 1 300 0;
#X connect 299 2 290 0;
#X connect 300 0 286 0;
#X connect 301 0 298 0;
#X connect 301 0 44 0;
#X connect 302 0 286 0;
#X connect 306 0 294 0;
#X connect 307 0 289 0;
#X connect 308 0 299 0;
#X connect 309 0 1 1;
#X connect 310 0 1 0;
#X connect 311 0 82 0;
#X connect 311 0 140 0;
#X connect 311 0 145 0;
#X connect 311 0 166 0;
#X connect 311 0 191 0;
#X connect 311 0 214 0;
#X connect 311 0 237 0;
#X connect 311 0 260 0;
#X connect 311 0 283 0;
#X connect 311 0 306 0;
#X connect 311 1 84 0;
#X connect 311 1 141 0;
#X connect 311 1 146 0;
#X connect 311 1 167 0;
#X connect 311 1 192 0;
#X connect 311 1 215 0;
#X connect 311 1 238 0;
#X connect 311 1 261 0;
#X connect 311 1 284 0;
#X connect 311 1 307 0;
#X connect 311 2 90 0;
#X connect 311 2 142 0;
#X connect 311 2 147 0;
#X connect 311 2 168 0;
#X connect 311 2 193 0;
#X connect 311 2 216 0;
#X connect 311 2 239 0;
#X connect 311 2 262 0;
#X connect 311 2 285 0;
#X connect 311 2 308 0;
