#N canvas 498 236 848 697 10;
#X obj 67 154 soundfiler;
#N canvas 0 50 450 250 (subpatch) 0;
#X array \$0-left 21224 float 2;
#X coords 0 1 21224 -1 200 140 1;
#X restore 452 54 graph;
#N canvas 0 50 450 250 (subpatch) 0;
#X array \$0-right 21224 float 2;
#X coords 0 1 21224 -1 200 140 1;
#X restore 453 226 graph;
#X obj 127 90 i \$0;
#X obj 127 68 loadbang;
#X obj 67 110 pack s \$0;
#X msg 67 132 read -resize \$1 \$2-left \$2-right;
#X obj 14 327 tabread4~ \$0-left;
#X obj 100 350 tabread4~ \$0-right;
#X obj 100 407 *~;
#X obj 15 407 *~;
#X obj 14 249 pack 0 0;
#X obj 67 201 * 1000;
#X msg 14 272 0 \, \$1 \$2;
#X obj 14 295 line~;
#X obj 108 26 s \$0-volume;
#X obj 118 377 r \$0-volume;
#X obj 14 -29 inlet;
#X obj 100 429 outlet~;
#X obj 15 429 outlet~;
#X obj 194 48 s \$0-samplerate;
#X obj 67 178 expr $f2 / $f1;
#X obj 190 190 r \$0-samplerate;
#X obj 112 234 f;
#X obj 149 269 * 1;
#X obj 14 -6 route bang read vol samplerate speed;
#X obj 222 22 s \$0-speed;
#X obj 172 218 r \$0-speed;
#X obj 171 239 t b f;
#X connect 0 0 11 0;
#X connect 0 0 21 0;
#X connect 3 0 5 1;
#X connect 4 0 3 0;
#X connect 5 0 6 0;
#X connect 6 0 0 0;
#X connect 7 0 10 0;
#X connect 8 0 9 0;
#X connect 9 0 18 0;
#X connect 10 0 19 0;
#X connect 11 0 13 0;
#X connect 12 0 23 0;
#X connect 13 0 14 0;
#X connect 14 0 7 0;
#X connect 14 0 8 0;
#X connect 16 0 10 1;
#X connect 16 0 9 1;
#X connect 17 0 25 0;
#X connect 21 0 12 0;
#X connect 22 0 21 1;
#X connect 23 0 24 0;
#X connect 24 0 11 1;
#X connect 25 0 11 0;
#X connect 25 1 5 0;
#X connect 25 2 15 0;
#X connect 25 3 20 0;
#X connect 25 4 26 0;
#X connect 27 0 28 0;
#X connect 28 0 23 0;
#X connect 28 1 24 1;
